<svg width="30" height="30" viewBox="0 0 30 30" fill="none" xmlns="http://www.w3.org/2000/svg">
<path d="M14.666 19.9526C19.166 19.9526 22.822 15.4796 22.822 9.98362C22.822 4.48762 19.166 0.015625 14.666 0.015625C13.5291 0.0373663 12.4123 0.319023 11.4011 0.839022C10.3899 1.35902 9.51109 2.10356 8.83203 3.01562C7.29265 5.01135 6.4742 7.46944 6.51001 9.98962C6.51001 15.4806 10.166 19.9526 14.666 19.9526ZM14.666 1.82862C18.166 1.82862 21.01 5.48763 21.01 9.98463C21.01 14.4816 18.164 18.1406 14.666 18.1406C11.168 18.1406 8.32205 14.4806 8.32104 9.98463C8.32004 5.48863 11.166 1.82862 14.666 1.82862ZM21.01 18.1406C20.7696 18.1406 20.539 18.2361 20.369 18.4061C20.199 18.5761 20.1035 18.8067 20.1035 19.0471C20.1035 19.2875 20.199 19.5181 20.369 19.6881C20.539 19.8581 20.7696 19.9536 21.01 19.9536C22.692 19.9555 24.3046 20.6245 25.4939 21.8138C26.6832 23.0031 27.3522 24.6157 27.354 26.2976C27.3535 26.5378 27.2578 26.7679 27.088 26.9377C26.9182 27.1075 26.6881 27.2031 26.448 27.2036H2.88599C2.64586 27.2031 2.41577 27.1075 2.24597 26.9377C2.07618 26.7679 1.98051 26.5378 1.97998 26.2976C1.9821 24.6157 2.65118 23.0034 3.84045 21.8141C5.02973 20.6248 6.64209 19.9557 8.32397 19.9536C8.56426 19.9536 8.79469 19.8582 8.9646 19.6883C9.13451 19.5184 9.22998 19.2879 9.22998 19.0476C9.22998 18.8073 9.13451 18.5769 8.9646 18.407C8.79469 18.2371 8.56426 18.1416 8.32397 18.1416C6.16143 18.1435 4.08803 19.0032 2.55859 20.532C1.02916 22.0609 0.168663 24.1341 0.166016 26.2966C0.16681 27.0175 0.453517 27.7086 0.963257 28.2184C1.473 28.7281 2.16413 29.0148 2.88501 29.0156H26.448C27.1687 29.0146 27.8596 28.7277 28.3691 28.218C28.8787 27.7083 29.1652 27.0173 29.166 26.2966C29.1634 24.1343 28.3033 22.0614 26.7743 20.5324C25.2453 19.0034 23.1723 18.1433 21.01 18.1406Z" fill="#E8E8E8"/>
</svg>
