<svg width="27" height="28" viewBox="0 0 27 28" fill="none" xmlns="http://www.w3.org/2000/svg">
<path d="M18.2256 17.6415C19.8373 15.8814 20.7942 13.6204 20.9358 11.2381C21.0773 8.8558 20.3948 6.49735 19.003 4.5588C17.6111 2.62025 15.5945 1.21966 13.292 0.592244C10.9894 -0.0351759 8.54112 0.148785 6.35818 1.11323C4.17525 2.07768 2.39064 3.76387 1.30405 5.88865C0.217463 8.01343 -0.10493 10.4474 0.391012 12.7818C0.886954 15.1162 2.17103 17.2088 4.02759 18.7083C5.88416 20.2078 8.20015 21.0229 10.5866 21.0165C12.839 21.0196 15.0305 20.2856 16.8266 18.9265L24.5746 26.7335C24.6601 26.8226 24.7625 26.8937 24.8759 26.9426C24.9892 26.9916 25.1112 27.0174 25.2346 27.0185C25.3583 27.0189 25.4808 26.9938 25.5943 26.9448C25.7079 26.8958 25.8101 26.8238 25.8946 26.7335C26.0686 26.5526 26.1657 26.3115 26.1657 26.0605C26.1657 25.8096 26.0686 25.5684 25.8946 25.3875L18.2256 17.6415ZM2.05264 10.5165C2.06548 8.83125 2.57695 7.18749 3.5226 5.79248C4.46825 4.39746 5.80574 3.31363 7.36645 2.67762C8.92717 2.04161 10.6412 1.8819 12.2926 2.21861C13.9439 2.55532 15.4586 3.37338 16.6458 4.56967C17.8329 5.76595 18.6392 7.28692 18.9632 8.94081C19.2872 10.5947 19.1143 12.3075 18.4663 13.8633C17.8182 15.419 16.7241 16.7481 15.3219 17.683C13.9196 18.6179 12.272 19.1167 10.5866 19.1165C8.31518 19.1057 6.14083 18.194 4.54085 16.5817C2.94087 14.9693 2.04599 12.788 2.05264 10.5165Z" fill="#E8E8E8"/>
</svg>
